<mxfile host="app.diagrams.net" modified="2021-10-08T16:03:33.112Z" agent="5.0 (Windows NT 10.0; Win64; x64) AppleWebKit/537.36 (KHTML, like Gecko) Chrome/94.0.4606.71 Safari/537.36" etag="7tPgE8h-FzFKqjPbFB8u" version="15.4.3" type="github">
  <diagram id="g_z5LibgCN57cee2yOvP" name="Page-1">
    <mxGraphModel dx="460" dy="828" grid="1" gridSize="10" guides="1" tooltips="1" connect="1" arrows="1" fold="1" page="1" pageScale="1" pageWidth="850" pageHeight="1100" math="0" shadow="0">
      <root>
        <mxCell id="0" />
        <mxCell id="1" parent="0" />
        <mxCell id="uB_ADN-PQVO7pmlwdkGX-3" value="" style="edgeStyle=orthogonalEdgeStyle;rounded=0;orthogonalLoop=1;jettySize=auto;html=1;" edge="1" parent="1" source="uB_ADN-PQVO7pmlwdkGX-1" target="uB_ADN-PQVO7pmlwdkGX-2">
          <mxGeometry relative="1" as="geometry" />
        </mxCell>
        <mxCell id="uB_ADN-PQVO7pmlwdkGX-1" value="Начало" style="rounded=1;whiteSpace=wrap;html=1;" vertex="1" parent="1">
          <mxGeometry x="160" y="190" width="120" height="60" as="geometry" />
        </mxCell>
        <mxCell id="uB_ADN-PQVO7pmlwdkGX-5" value="" style="edgeStyle=orthogonalEdgeStyle;rounded=0;orthogonalLoop=1;jettySize=auto;html=1;" edge="1" parent="1" source="uB_ADN-PQVO7pmlwdkGX-2" target="uB_ADN-PQVO7pmlwdkGX-4">
          <mxGeometry relative="1" as="geometry" />
        </mxCell>
        <mxCell id="uB_ADN-PQVO7pmlwdkGX-2" value="Ввод переменых x,y,x" style="whiteSpace=wrap;html=1;rounded=1;arcSize=0;" vertex="1" parent="1">
          <mxGeometry x="160" y="330" width="120" height="60" as="geometry" />
        </mxCell>
        <mxCell id="uB_ADN-PQVO7pmlwdkGX-8" value="" style="edgeStyle=orthogonalEdgeStyle;rounded=0;orthogonalLoop=1;jettySize=auto;html=1;" edge="1" parent="1" source="uB_ADN-PQVO7pmlwdkGX-4" target="uB_ADN-PQVO7pmlwdkGX-7">
          <mxGeometry relative="1" as="geometry" />
        </mxCell>
        <mxCell id="uB_ADN-PQVO7pmlwdkGX-15" style="edgeStyle=orthogonalEdgeStyle;rounded=0;orthogonalLoop=1;jettySize=auto;html=1;" edge="1" parent="1" source="uB_ADN-PQVO7pmlwdkGX-4" target="uB_ADN-PQVO7pmlwdkGX-10">
          <mxGeometry relative="1" as="geometry" />
        </mxCell>
        <mxCell id="uB_ADN-PQVO7pmlwdkGX-4" value="x&amp;gt;y" style="rhombus;whiteSpace=wrap;html=1;rounded=1;arcSize=0;" vertex="1" parent="1">
          <mxGeometry x="180" y="460" width="80" height="80" as="geometry" />
        </mxCell>
        <mxCell id="uB_ADN-PQVO7pmlwdkGX-17" style="edgeStyle=orthogonalEdgeStyle;rounded=0;orthogonalLoop=1;jettySize=auto;html=1;entryX=0.5;entryY=0;entryDx=0;entryDy=0;" edge="1" parent="1" source="uB_ADN-PQVO7pmlwdkGX-7" target="uB_ADN-PQVO7pmlwdkGX-10">
          <mxGeometry relative="1" as="geometry">
            <Array as="points">
              <mxPoint x="370" y="580" />
            </Array>
          </mxGeometry>
        </mxCell>
        <mxCell id="uB_ADN-PQVO7pmlwdkGX-7" value="swap x,y" style="shape=parallelogram;perimeter=parallelogramPerimeter;whiteSpace=wrap;html=1;fixedSize=1;rounded=1;arcSize=0;" vertex="1" parent="1">
          <mxGeometry x="320" y="470" width="120" height="60" as="geometry" />
        </mxCell>
        <mxCell id="uB_ADN-PQVO7pmlwdkGX-9" value="" style="edgeStyle=orthogonalEdgeStyle;rounded=0;orthogonalLoop=1;jettySize=auto;html=1;" edge="1" parent="1" source="uB_ADN-PQVO7pmlwdkGX-10" target="uB_ADN-PQVO7pmlwdkGX-11">
          <mxGeometry relative="1" as="geometry" />
        </mxCell>
        <mxCell id="uB_ADN-PQVO7pmlwdkGX-16" style="edgeStyle=orthogonalEdgeStyle;rounded=0;orthogonalLoop=1;jettySize=auto;html=1;entryX=0.5;entryY=0;entryDx=0;entryDy=0;" edge="1" parent="1" source="uB_ADN-PQVO7pmlwdkGX-10" target="uB_ADN-PQVO7pmlwdkGX-13">
          <mxGeometry relative="1" as="geometry" />
        </mxCell>
        <mxCell id="uB_ADN-PQVO7pmlwdkGX-10" value="y&amp;gt;z" style="rhombus;whiteSpace=wrap;html=1;rounded=1;arcSize=0;" vertex="1" parent="1">
          <mxGeometry x="180" y="580" width="80" height="80" as="geometry" />
        </mxCell>
        <mxCell id="uB_ADN-PQVO7pmlwdkGX-18" style="edgeStyle=orthogonalEdgeStyle;rounded=0;orthogonalLoop=1;jettySize=auto;html=1;entryX=0.5;entryY=0;entryDx=0;entryDy=0;" edge="1" parent="1" source="uB_ADN-PQVO7pmlwdkGX-11" target="uB_ADN-PQVO7pmlwdkGX-13">
          <mxGeometry relative="1" as="geometry">
            <Array as="points">
              <mxPoint x="370" y="690" />
            </Array>
          </mxGeometry>
        </mxCell>
        <mxCell id="uB_ADN-PQVO7pmlwdkGX-11" value="swap z,y" style="shape=parallelogram;perimeter=parallelogramPerimeter;whiteSpace=wrap;html=1;fixedSize=1;rounded=1;arcSize=0;" vertex="1" parent="1">
          <mxGeometry x="320" y="590" width="120" height="60" as="geometry" />
        </mxCell>
        <mxCell id="uB_ADN-PQVO7pmlwdkGX-12" value="" style="edgeStyle=orthogonalEdgeStyle;rounded=0;orthogonalLoop=1;jettySize=auto;html=1;" edge="1" parent="1" source="uB_ADN-PQVO7pmlwdkGX-13" target="uB_ADN-PQVO7pmlwdkGX-14">
          <mxGeometry relative="1" as="geometry" />
        </mxCell>
        <mxCell id="uB_ADN-PQVO7pmlwdkGX-20" value="" style="edgeStyle=orthogonalEdgeStyle;rounded=0;orthogonalLoop=1;jettySize=auto;html=1;" edge="1" parent="1" source="uB_ADN-PQVO7pmlwdkGX-13" target="uB_ADN-PQVO7pmlwdkGX-19">
          <mxGeometry relative="1" as="geometry" />
        </mxCell>
        <mxCell id="uB_ADN-PQVO7pmlwdkGX-13" value="x&amp;gt;y" style="rhombus;whiteSpace=wrap;html=1;rounded=1;arcSize=0;" vertex="1" parent="1">
          <mxGeometry x="180" y="690" width="80" height="80" as="geometry" />
        </mxCell>
        <mxCell id="uB_ADN-PQVO7pmlwdkGX-21" style="edgeStyle=orthogonalEdgeStyle;rounded=0;orthogonalLoop=1;jettySize=auto;html=1;" edge="1" parent="1" source="uB_ADN-PQVO7pmlwdkGX-14" target="uB_ADN-PQVO7pmlwdkGX-19">
          <mxGeometry relative="1" as="geometry">
            <Array as="points">
              <mxPoint x="380" y="890" />
            </Array>
          </mxGeometry>
        </mxCell>
        <mxCell id="uB_ADN-PQVO7pmlwdkGX-14" value="swap x,y" style="shape=parallelogram;perimeter=parallelogramPerimeter;whiteSpace=wrap;html=1;fixedSize=1;rounded=1;arcSize=0;" vertex="1" parent="1">
          <mxGeometry x="330" y="700" width="120" height="60" as="geometry" />
        </mxCell>
        <mxCell id="uB_ADN-PQVO7pmlwdkGX-19" value="Конец" style="whiteSpace=wrap;html=1;rounded=1;arcSize=37;" vertex="1" parent="1">
          <mxGeometry x="160" y="860" width="120" height="60" as="geometry" />
        </mxCell>
      </root>
    </mxGraphModel>
  </diagram>
</mxfile>
